<svg xmlns="http://www.w3.org/2000/svg" viewBox="0 0 512 512">
  <defs>
    <linearGradient id="neon-grad" x1="0%" y1="0%" x2="100%" y2="100%">
      <stop offset="0%" style="stop-color:#00F0FF;stop-opacity:1" />
      <stop offset="50%" style="stop-color:#2D5BFF;stop-opacity:1" />
      <stop offset="100%" style="stop-color:#FF003C;stop-opacity:1" />
    </linearGradient>
    <filter id="glow" x="-50%" y="-50%" width="200%" height="200%">
      <feGaussianBlur in="SourceGraphic" stdDeviation="10" result="blur" />
      <feColorMatrix in="blur" type="matrix" values="1 0 0 0 0  0 1 0 0 0  0 0 1 0 0  0 0 0 18 -7" result="glow" />
      <feMerge>
        <feMergeNode in="glow" />
        <feMergeNode in="SourceGraphic" />
      </feMerge>
    </filter>
  </defs>
  
  <!-- Background Shape -->
  <path d="M256 32 L480 160 V352 L256 480 L32 352 V160 Z" fill="none" stroke="url(#neon-grad)" stroke-width="12" filter="url(#glow)" />
  
  <!-- Inner Origami Shape -->
  <path d="M256 80 L112 192 L256 288 L400 192 Z" fill="#00F0FF" opacity="0.8" />
  <path d="M112 192 V320 L256 416 V288 Z" fill="#2D5BFF" opacity="0.9" />
  <path d="M400 192 V320 L256 416 V288 Z" fill="#FF003C" opacity="0.9" />
  
  <!-- Tech Accents -->
  <circle cx="256" cy="288" r="16" fill="#FFFFFF" filter="url(#glow)" />
  <path d="M256 32 V80 M480 160 L440 184 M480 352 L440 328 M256 480 V432 M32 352 L72 328 M32 160 L72 184" stroke="#FFFFFF" stroke-width="4" opacity="0.5" />
</svg>